<?xml version="1.0" standalone="no"?>
<!DOCTYPE svg PUBLIC "-//W3C//DTD SVG 20010904//EN"
 "http://www.w3.org/TR/2001/REC-SVG-20010904/DTD/svg10.dtd">
<svg version="1.0" xmlns="http://www.w3.org/2000/svg"
 width="500.000000pt" height="500.000000pt" viewBox="0 0 500.000000 500.000000"
 preserveAspectRatio="xMidYMid meet">

<g transform="translate(0.000000,500.000000) scale(0.100000,-0.100000)"
fill="#000000" stroke="none">
<path d="M1650 2640 l0 -850 850 0 850 0 0 850 0 850 -850 0 -850 0 0 -850z
m1640 0 l0 -790 -795 0 -795 0 0 790 0 790 795 0 795 0 0 -790z"/>
<path d="M1860 2650 l0 -650 85 0 c78 0 88 2 110 25 l25 24 0 601 -1 602 -24
24 c-22 22 -32 24 -110 24 l-85 0 0 -650z m145 425 l0 -150 -32 -3 -33 -3 0
156 0 156 33 -3 32 -3 0 -150z m3 -609 c2 -264 -1 -373 -9 -382 -6 -8 -22 -14
-35 -14 l-24 0 0 386 0 385 33 -3 32 -3 3 -369z"/>
<path d="M2220 2650 l0 -650 80 0 c73 0 83 3 105 25 l25 24 0 396 0 395 -35 0
-35 0 0 -379 c0 -336 -2 -380 -16 -385 -46 -18 -44 -45 -44 609 l0 615 -40 0
-40 0 0 -650z"/>
<path d="M2612 3293 c-7 -3 -19 -18 -27 -33 -13 -25 -15 -117 -15 -614 l0
-584 26 -31 c23 -28 32 -31 80 -31 45 0 59 4 79 25 l25 24 0 601 0 601 -25 24
c-20 21 -34 25 -77 24 -29 0 -59 -3 -66 -6z m96 -640 c2 -564 2 -572 -18 -578
-11 -3 -24 -3 -30 0 -7 4 -10 205 -10 581 l0 575 28 -3 27 -3 3 -572z"/>
<path d="M2962 3293 c-7 -3 -19 -18 -27 -33 -13 -25 -15 -117 -15 -614 l0
-584 26 -31 c25 -30 29 -31 105 -31 l79 0 0 460 0 460 -45 0 -45 0 0 -40 c0
-22 5 -40 10 -40 6 0 10 -133 10 -379 0 -370 0 -380 -20 -386 -11 -3 -24 -3
-30 0 -7 4 -10 205 -10 581 l0 575 28 -3 c27 -3 27 -4 30 -80 l3 -78 34 0 35
0 0 90 c0 83 -2 93 -25 115 -20 21 -34 25 -77 24 -29 0 -59 -3 -66 -6z"/>
<path d="M2195 1708 c-15 -14 -28 -38 -32 -60 -5 -32 -1 -41 25 -68 20 -20 40
-30 60 -30 35 0 62 9 62 20 0 5 -14 3 -30 -3 -25 -9 -36 -9 -58 4 -58 32 -62
99 -7 135 22 14 32 15 63 6 33 -10 35 -10 18 3 -29 22 -71 18 -101 -7z"/>
<path d="M2469 1715 c-38 -20 -52 -67 -35 -110 17 -39 42 -55 86 -55 43 0 90
47 90 90 0 22 -9 41 -29 61 -33 32 -70 37 -112 14z m97 -18 c20 -17 27 -33 27
-57 0 -39 -40 -80 -77 -80 -37 0 -76 37 -76 71 0 78 70 114 126 66z"/>
<path d="M2730 1640 l0 -90 63 2 62 2 -52 3 -53 4 0 85 c0 49 -4 84 -10 84 -6
0 -10 -37 -10 -90z"/>
</g>
</svg>
